/* XPM */
static char * unfocus1_xpm[] = {
"19 19 14 1",
" 	c None",
".	c #DEDEDE",
"+	c #DCDCDC",
"@	c #D5D5D5",
"#	c #D3D3D3",
"$	c #C9C9C9",
"%	c #C8C8C8",
"&	c #D2D2D2",
"*	c #D4D4D4",
"=	c #DBDBDB",
"-	c #D6D6D6",
";	c #DDDDDD",
">	c #CACACA",
",	c #D7D7D7",
"...................",
"...................",
"...................",
"...................",
".......+@#@+.......",
"......#$$%$$#......",
".....&$%%%%%$*.....",
"....+$%%%%%%%%=....",
"....@%%%%%%%%$-....",
"....#%%%%%%%%%*....",
"....-$%%%%%%%$-....",
"....;$%%%%%%%$+....",
".....*$%%%%%%@.....",
"......@$$$>$-......",
".......;,@,;.......",
"...................",
"...................",
"...................",
"..................."};
