/* XPM */
static char * closes_xpm[] = {
"19 19 39 1",
" 	c None",
".	c #DEDEDE",
"+	c #E0D0D1",
"@	c #E8A2A5",
"#	c #E9999D",
"$	c #E8A2A6",
"%	c #E0D1D1",
"&	c #DEDDDD",
"*	c #EA969A",
"=	c #F65158",
"-	c #F6525A",
";	c #F74B53",
">	c #F65058",
",	c #EA989C",
"'	c #EB9498",
")	c #F65159",
"!	c #EA979A",
"~	c #E1CECF",
"{	c #E0CFCF",
"]	c #E8A4A7",
"^	c #E8A6A9",
"/	c #EA979B",
"(	c #F74C54",
"_	c #E7A8AB",
":	c #F65259",
"<	c #F6535A",
"[	c #E7AAAD",
"}	c #E0D3D4",
"|	c #DFD3D4",
"1	c #EA9CA0",
"2	c #E9A0A3",
"3	c #E9A1A4",
"4	c #F5545C",
"5	c #F6535B",
"6	c #F5545B",
"7	c #E0D8D8",
"8	c #E5B4B6",
"9	c #E8A3A6",
"0	c #DFD7D8",
"...................",
"...................",
"...................",
"...................",
".......+@#$%.......",
".....&*=-;->,&.....",
".....');;;;;-!.....",
"....~=;;;;;;;>{....",
"....]);;;;;;;-^....",
"..../(;;;;;;;(,....",
"...._:;;;;;;;<[....",
"....}:;;;;;;;-|....",
".....1);;;;;=2.....",
"......3:456<]......",
".......78980.......",
"...................",
"...................",
"...................",
"..................."};
