/* XPM */
static char * cobas_xpm[] = {
"22 22 28 1",
" 	c None",
".	c #B5CAD6",
"+	c #9ABED0",
"@	c #B3CAD6",
"#	c #78AEC9",
"$	c #2284B8",
"%	c #2484B8",
"&	c #2384B7",
"*	c #68A5C6",
"=	c #AAC5D2",
"-	c #2284B7",
";	c #1A80B6",
">	c #2485B8",
",	c #9DBFD1",
"'	c #8AB6CF",
")	c #2385B7",
"!	c #1E82B7",
"~	c #7CAFCB",
"{	c #9EBFD1",
"]	c #1A7FB6",
"^	c #90B8CE",
"/	c #539BC2",
"(	c #2585B8",
"_	c #1D81B7",
":	c #4595BF",
"<	c #98BCCF",
"[	c #77ADC9",
"}	c #94BACF",
"                      ",
"                      ",
"                      ",
"                      ",
"                      ",
"                      ",
"                      ",
"                      ",
"                 .+@  ",
"                #$%&* ",
"               =-;;;>,",
"               ');;;!~",
"               {%;;]%^",
"                /(_(: ",
"                 <[}  ",
"                      ",
"                      ",
"                      ",
"                      ",
"                      ",
"                      ",
"                      "};
