/* XPM */
static char * min_xpm[] = {
"19 19 38 1",
" 	c None",
".	c #DEDEDE",
"+	c #E1DBCE",
"@	c #EBD197",
"#	c #EDD08D",
"$	c #EBD298",
"%	c #DEDEDD",
"&	c #EED08A",
"*	c #FDC138",
"=	c #FCC239",
"-	c #FEC032",
";	c #FCC13A",
">	c #FDC137",
",	c #EECF8C",
"'	c #EFCF87",
")	c #FCC139",
"!	c #FEC031",
"~	c #EED08B",
"{	c #E2DBCB",
"]	c #E1DBCC",
"^	c #EBD299",
"/	c #EBD39C",
"(	c #FDC032",
"_	c #FDC033",
":	c #EAD39E",
"<	c #EAD4A0",
"[	c #E1DCD1",
"}	c #FDC139",
"|	c #E0DCD1",
"1	c #EDD190",
"2	c #FCC238",
"3	c #ECD294",
"4	c #ECD297",
"5	c #FCC23C",
"6	c #EBD39A",
"7	c #E0DDD6",
"8	c #E7D5AD",
"9	c #DFDCD6",
"...................",
"...................",
"...................",
"...................",
".......+@#$+.......",
".....%&*=-;>,%.....",
".....')!!!!!)~.....",
"....{*!!!!!!!>]....",
"....^)!!!!!!!)/....",
"....~(!!!!!!!_~....",
"....:=!!!!!!!)<....",
"....[}!!!!!!!}|....",
".....1*!!!!!23.....",
"......4)5;5;6......",
".......78^89.......",
"...................",
"...................",
"...................",
"..................."};
