/* XPM */
static char * stickk1_xpm[] = {
"19 19 3 1",
" 	c None",
".	c #DEDEDE",
"+	c #DDDDDD",
".+++++++++++++++++.",
"+.................+",
"+.................+",
"+.................+",
"+.................+",
"+.................+",
"+.................+",
"+.................+",
"+.................+",
"+.................+",
"+.................+",
"+.................+",
"+.................+",
"+.................+",
"+.................+",
"+.................+",
"+.................+",
"+.................+",
".+++++++++++++++++."};
