/* XPM */
static char * stickk_unfocus_xpm[] = {
"19 19 12 1",
" 	c None",
".	c #DEDEDE",
"+	c #BFBFBF",
"@	c #BDBDBD",
"#	c #BBBBBB",
"$	c #B8B8B8",
"%	c #D8D8D8",
"&	c #B6B6B6",
"*	c #B4B4B4",
"=	c #B2B2B2",
"-	c #B0B0B0",
";	c #C0C0C0",
"...................",
"...................",
"...................",
"...................",
"...................",
"........+++........",
"........@@@........",
"........###........",
"........$$$........",
".......%&&&%.......",
".......*****.......",
".........=.........",
".........-.........",
".........;.........",
"...................",
"...................",
"...................",
"...................",
"..................."};
