/* XPM */
static char * stickk_xpm[] = {
"19 19 17 1",
" 	c None",
".	c #DEDEDE",
"+	c #BBBBBB",
"@	c #6E6E6E",
"#	c #BCBCBB",
"$	c #686868",
"%	c #636363",
"&	c #5D5D5D",
"*	c #ABABAC",
"=	c #585858",
"-	c #ABACAC",
";	c #525252",
">	c #DFDFDE",
",	c #4C4C4C",
"'	c #DFDEDF",
")	c #474747",
"!	c #717171",
"...................",
"...................",
"...................",
"...................",
"...................",
".......+@@@#.......",
"........$$$........",
"........%%%........",
"........&&&........",
".......*===-.......",
".......;;;;;.......",
"........>,'........",
".........).........",
".........!.........",
"...................",
"...................",
"...................",
"...................",
"..................."};
